<svg fill="none" xmlns="http://www.w3.org/2000/svg" viewBox="0 0 32 32"><rect y=".5" width="32" height="32" rx="6" fill="#342B55" fill-opacity=".3"/><path d="M16.022 8.536c-.56 0-1.013.453-1.013 1.013v.608a5.07 5.07 0 0 0-4.054 4.966v.805a6.34 6.34 0 0 1-1.387 3.956l-.472.592a.758.758 0 0 0 .592 1.235h12.669a.76.76 0 0 0 .592-1.235l-.472-.59a6.356 6.356 0 0 1-1.387-3.958v-.805a5.07 5.07 0 0 0-4.054-4.966V9.55c0-.56-.453-1.013-1.014-1.013zm0 3.04a3.546 3.546 0 0 1 3.548 3.547v.805c0 1.517.44 2.996 1.257 4.263h-9.61a7.865 7.865 0 0 0 1.258-4.263v-.805a3.546 3.546 0 0 1 3.547-3.547zm2.027 11.149h-4.054c0 .538.213 1.054.593 1.434.38.38.896.593 1.434.593.539 0 1.055-.213 1.435-.593.38-.38.592-.896.592-1.434z" fill="#E3E9EC"/></svg>