<svg width="24" height="24" fill="none" xmlns="http://www.w3.org/2000/svg"><path d="M12 20.444a8.444 8.444 0 0 0 6.933-13.266l.757-.757A9.457 9.457 0 0 1 21.5 12 9.5 9.5 0 1 1 12 2.5c2.148 0 4.13.713 5.72 1.915l1.138-1.138v1.83l.018.018h1.83l-1.848 1.847h-1.08l-4.757 4.757a1.056 1.056 0 1 1-.745-.748l.799-.799A2.111 2.111 0 1 0 14.111 12l.919-.92a3.167 3.167 0 1 1-1.194-1.66l1.505-1.505a5.278 5.278 0 1 0 1.294 1.56l.772-.772a6.333 6.333 0 1 1-1.317-1.537l.92-.92V5.202A8.444 8.444 0 1 0 12 20.444z" fill="#fff"/></svg>