<svg fill="none" xmlns="http://www.w3.org/2000/svg"><path d="M16 26.667c5.891 0 10.667-4.776 10.667-10.667 0-2.264-.706-4.364-1.91-6.091l.957-.956A11.946 11.946 0 0 1 28 16c0 6.627-5.373 12-12 12S4 22.627 4 16 9.373 4 16 4c2.713 0 5.216.9 7.226 2.419l1.437-1.437v2.311l.022.022h2.311L24.663 9.65h-1.364l-6.01 6.009a1.333 1.333 0 1 1-.94-.945l1.008-1.009A2.667 2.667 0 1 0 18.667 16l1.162-1.162a4 4 0 1 1-1.508-2.097l1.9-1.901a6.667 6.667 0 1 0 1.634 1.971l.977-.976a8 8 0 1 1-1.663-1.942l1.16-1.161V7.413A10.619 10.619 0 0 0 16 5.333C10.109 5.333 5.333 10.11 5.333 16S10.11 26.667 16 26.667z" fill="url(#a)" stroke="#261E43" stroke-width=".4"/><defs><linearGradient id="a" x1="25.096" y1="4" x2="28.889" y2="27.397" gradientUnits="userSpaceOnUse"><stop stop-color="#EFBAD3"/><stop offset="1" stop-color="#9A5FEC"/></linearGradient></defs></svg>