<svg width="24" height="24" fill="none" xmlns="http://www.w3.org/2000/svg"><g clip-path="url(#a)"><rect width="24" height="24" rx="12" fill="url(#b)"/><path opacity=".5" d="M10.236 22.858a11 11 0 0 1-7.34-4.684L12 12l-1.764 10.858z" fill="url(#c)"/><path transform="rotate(28.806 13.91 -11)" fill="url(#d)" d="M13.911-11h23.397v39.247H13.911z"/><path d="M12 22.913a10.912 10.912 0 1 1 0-21.826M12 22.913a10.912 10.912 0 1 0 0-21.826" stroke="#A65F0C" stroke-width=".175"/><path d="M10.236 22.858a11 11 0 0 1-7.34-4.684l.142-.096a10.828 10.828 0 0 0 7.226 4.61l-.028.17z" fill="url(#e)"/><path d="M13.764 1.142a11 11 0 0 1 7.34 4.684l-.142.096a10.828 10.828 0 0 0-7.226-4.61l.028-.17z" fill="url(#f)"/><path d="M13.764 22.858a11 11 0 0 0 7.34-4.684l-.142-.096a10.827 10.827 0 0 1-7.226 4.61l.028.17z" fill="url(#g)"/><path d="M15 5.248a2.419 2.419 0 0 1 2.24 3.334h.093A1.418 1.418 0 0 1 18.752 10v.667a1.418 1.418 0 0 1-1.419 1.418h-4.751V8.752h-1.164v3.333H6.667a1.418 1.418 0 0 1-1.419-1.418V10a1.418 1.418 0 0 1 1.419-1.418h.094c-.118-.29-.18-.601-.18-.915L15 5.248zm0 0-.14.002h-.002c-1.153.04-2.163.812-2.858 2.027m3-2.029-3 2.029m0 0-.017-.03c-.722-1.244-1.784-2.019-2.995-1.999a2.416 2.416 0 0 0-2.406 2.419L12 7.277zm-.582 6.056v-.085H7.333a.752.752 0 0 0-.751.752v2.667a2.085 2.085 0 0 0 2.085 2.085h2.751v-5.419zm1.164 5.334v.085h2.751a2.085 2.085 0 0 0 2.085-2.085V14a.751.751 0 0 0-.751-.752h-4.085v5.419zM9 6.752h.001c.718-.012 1.476.642 1.969 1.83H9a.915.915 0 1 1 0-1.83zm5.987 0h.002a.915.915 0 0 1 .01 1.83H13.03c.238-.571.538-1.023.866-1.335.35-.332.726-.501 1.091-.495z" fill="#120A27" stroke="url(#h)" stroke-width=".17"/></g><rect x=".5" y=".5" width="23" height="23" rx="11.5" stroke="url(#i)"/><defs><radialGradient id="c" cx="0" cy="0" r="1" gradientUnits="userSpaceOnUse" gradientTransform="matrix(4.9011 -9.9402 9.9402 4.9011 12 12)"><stop stop-color="#fff"/><stop offset=".453" stop-color="#D7A012"/><stop offset=".494" stop-color="#FFF1D3"/><stop offset=".545" stop-color="#FFF1D3"/><stop offset=".579" stop-color="#D8A115"/><stop offset="1" stop-color="#35705E"/></radialGradient><radialGradient id="e" cx="0" cy="0" r="1" gradientUnits="userSpaceOnUse" gradientTransform="matrix(4.9011 -9.9402 9.9402 4.9011 12 12)"><stop stop-color="#fff"/><stop offset=".453" stop-color="#A65F0C"/><stop offset=".494" stop-color="#fff"/><stop offset=".545" stop-color="#fff"/><stop offset=".579" stop-color="#A65F0C"/><stop offset="1" stop-color="#35705E"/></radialGradient><radialGradient id="f" cx="0" cy="0" r="1" gradientUnits="userSpaceOnUse" gradientTransform="rotate(116.246 2.269 9.731) scale(11.0828)"><stop stop-color="#fff"/><stop offset=".453" stop-color="#A65F0C"/><stop offset=".494" stop-color="#fff"/><stop offset=".545" stop-color="#fff"/><stop offset=".579" stop-color="#A65F0C"/><stop offset="1" stop-color="#35705E"/></radialGradient><radialGradient id="g" cx="0" cy="0" r="1" gradientUnits="userSpaceOnUse" gradientTransform="rotate(-116.246 9.731 2.269) scale(11.0828)"><stop stop-color="#fff"/><stop offset=".453" stop-color="#A65F0C"/><stop offset=".494" stop-color="#fff"/><stop offset=".545" stop-color="#fff"/><stop offset=".579" stop-color="#A65F0C"/><stop offset="1" stop-color="#35705E"/></radialGradient><linearGradient id="b" x1="15.375" y1="0" x2="4.5" y2="24.75" gradientUnits="userSpaceOnUse"><stop stop-color="#FAC743"/><stop offset="1" stop-color="#CE9606"/></linearGradient><linearGradient id="d" x1="13.586" y1="11.396" x2="37.391" y2="9.175" gradientUnits="userSpaceOnUse"><stop offset=".087" stop-color="#EAB52D" stop-opacity="0"/><stop offset=".25" stop-color="#FFDE88" stop-opacity=".8"/><stop offset=".596" stop-color="#FFF0CA" stop-opacity=".6"/><stop offset="1" stop-color="#E2AC22" stop-opacity="0"/></linearGradient><linearGradient id="h" x1="7.254" y1="5.333" x2="18.549" y2="8.335" gradientUnits="userSpaceOnUse"><stop stop-color="#FFF5DB"/><stop offset="1" stop-color="#F4DEAB"/></linearGradient><linearGradient id="i" x1="3.458" y1="0" x2="23.787" y2="5.403" gradientUnits="userSpaceOnUse"><stop stop-color="#FFF5DB"/><stop offset="1" stop-color="#F4DEAB"/></linearGradient><clipPath id="a"><rect width="24" height="24" rx="12" fill="#fff"/></clipPath></defs></svg>