<svg width="34" height="32" fill="none" xmlns="http://www.w3.org/2000/svg"><path fill-rule="evenodd" clip-rule="evenodd" d="M11.597 13.848a1.571 1.571 0 0 0 0 2.18l4.343 4.461a1.472 1.472 0 0 0 2.121 0l4.344-4.462a1.571 1.571 0 0 0 0-2.18L18.06 9.386a1.472 1.472 0 0 0-2.121 0l-4.343 4.463zM17 10.474l-4.344 4.462 4.344 4.462 4.343-4.462-4.343-4.462z" fill="url(#a)"/><path fill-rule="evenodd" clip-rule="evenodd" d="M16.528 4.01a11.178 11.178 0 0 1 6.335 1.655 11.642 11.642 0 0 1 4.41 4.944 12.064 12.064 0 0 1-.705 11.584h2.622v1.518H4.81v-1.518h3.01c-.962-1.125-1.65-2.274-2.006-4.02a12.083 12.083 0 0 1 .535-6.677 11.72 11.72 0 0 1 4-5.299 11.221 11.221 0 0 1 6.179-2.187zm-6.64 18.183h14.82a10.426 10.426 0 0 0 2.12-5.156c.24-1.98-.084-3.99-.932-5.78a10.121 10.121 0 0 0-3.834-4.3 9.65 9.65 0 0 0-5.47-1.43 9.693 9.693 0 0 0-5.338 1.89 10.202 10.202 0 0 0-3.479 4.614 10.57 10.57 0 0 0-.467 5.84c.379 1.86 1.172 2.867 2.58 4.322z" fill="url(#b)"/><path d="M3.286 18.042a.76.76 0 0 0-.762.759v7.922c0 .42.34.759.762.759h27.428a.76.76 0 0 0 .762-.759v-7.922a.76.76 0 0 0-.762-.76h-.38v-1.517h.38A2.281 2.281 0 0 1 33 18.8v7.922A2.281 2.281 0 0 1 30.714 29H3.286A2.281 2.281 0 0 1 1 26.723v-7.922a2.281 2.281 0 0 1 2.286-2.277h.38v1.518h-.38z" fill="url(#c)"/><path clip-rule="evenodd" d="M11.597 13.848a1.571 1.571 0 0 0 0 2.18l4.343 4.461a1.472 1.472 0 0 0 2.121 0l4.344-4.462a1.571 1.571 0 0 0 0-2.18L18.06 9.386a1.472 1.472 0 0 0-2.121 0l-4.343 4.463zM17 10.474l-4.344 4.462 4.344 4.462 4.343-4.462-4.343-4.462z" stroke="#261E43" stroke-width=".4"/><path clip-rule="evenodd" d="M16.528 4.01a11.178 11.178 0 0 1 6.335 1.655 11.642 11.642 0 0 1 4.41 4.944 12.064 12.064 0 0 1-.705 11.584h2.622v1.518H4.81v-1.518h3.01c-.962-1.125-1.65-2.274-2.006-4.02a12.083 12.083 0 0 1 .535-6.677 11.72 11.72 0 0 1 4-5.299 11.221 11.221 0 0 1 6.179-2.187zm-6.64 18.183h14.82a10.426 10.426 0 0 0 2.12-5.156c.24-1.98-.084-3.99-.932-5.78a10.121 10.121 0 0 0-3.834-4.3 9.65 9.65 0 0 0-5.47-1.43 9.693 9.693 0 0 0-5.338 1.89 10.202 10.202 0 0 0-3.479 4.614 10.57 10.57 0 0 0-.467 5.84c.379 1.86 1.172 2.867 2.58 4.322z" stroke="#261E43" stroke-width=".4"/><path d="M3.286 18.042a.76.76 0 0 0-.762.759v7.922c0 .42.34.759.762.759h27.428a.76.76 0 0 0 .762-.759v-7.922a.76.76 0 0 0-.762-.76h-.38v-1.517h.38A2.281 2.281 0 0 1 33 18.8v7.922A2.281 2.281 0 0 1 30.714 29H3.286A2.281 2.281 0 0 1 1 26.723v-7.922a2.281 2.281 0 0 1 2.286-2.277h.38v1.518h-.38z" stroke="#261E43" stroke-width=".4"/><defs><linearGradient id="a" x1="29.128" y1="4" x2="32.246" y2="28.617" gradientUnits="userSpaceOnUse"><stop stop-color="#EFBAD3"/><stop offset="1" stop-color="#9A5FEC"/></linearGradient><linearGradient id="b" x1="29.128" y1="4" x2="32.246" y2="28.617" gradientUnits="userSpaceOnUse"><stop stop-color="#EFBAD3"/><stop offset="1" stop-color="#9A5FEC"/></linearGradient><linearGradient id="c" x1="29.128" y1="4" x2="32.246" y2="28.617" gradientUnits="userSpaceOnUse"><stop stop-color="#EFBAD3"/><stop offset="1" stop-color="#9A5FEC"/></linearGradient></defs></svg>