<svg width="24" height="24" fill="none" xmlns="http://www.w3.org/2000/svg"><path fill-rule="evenodd" clip-rule="evenodd" d="M8.454 10.487a1.038 1.038 0 0 0 0 1.436l2.85 2.94a.964.964 0 0 0 1.393 0l2.85-2.94a1.038 1.038 0 0 0 0-1.436l-2.85-2.94a.964.964 0 0 0-1.393 0l-2.85 2.94zM12 8.265l-2.85 2.94 2.85 2.94 2.85-2.94L12 8.265z" fill="#fff"/><path fill-rule="evenodd" clip-rule="evenodd" d="M11.69 4.007a7.314 7.314 0 0 1 4.157 1.09 7.66 7.66 0 0 1 2.895 3.257 7.973 7.973 0 0 1-.463 7.63H20v1H4v-1h1.976c-.632-.74-1.083-1.497-1.316-2.647a7.988 7.988 0 0 1 .35-4.399 7.718 7.718 0 0 1 2.625-3.49 7.346 7.346 0 0 1 4.055-1.441zM7.333 15.984h9.726a6.882 6.882 0 0 0 1.39-3.396 6.974 6.974 0 0 0-.611-3.808 6.66 6.66 0 0 0-2.516-2.832 6.314 6.314 0 0 0-3.59-.942A6.346 6.346 0 0 0 8.23 6.25a6.718 6.718 0 0 0-2.283 3.04 6.988 6.988 0 0 0-.306 3.847c.248 1.225.769 1.888 1.693 2.846z" fill="#fff"/><path d="M3 13.25a.5.5 0 0 0-.5.5v5.219a.5.5 0 0 0 .5.5h18a.5.5 0 0 0 .5-.5V13.75a.5.5 0 0 0-.5-.5h-.25v-1H21a1.5 1.5 0 0 1 1.5 1.5v5.219a1.5 1.5 0 0 1-1.5 1.5H3a1.5 1.5 0 0 1-1.5-1.5V13.75a1.5 1.5 0 0 1 1.5-1.5h.25v1H3z" fill="#fff"/></svg>