<svg fill="none" xmlns="http://www.w3.org/2000/svg"><path fill-rule="evenodd" clip-rule="evenodd" d="M18.6 15.5c0 1.418-1.164 2.568-2.6 2.568-1.436 0-2.6-1.15-2.6-2.568 0-1.418 1.164-2.568 2.6-2.568 1.436 0 2.6 1.15 2.6 2.568zm-.937 0c0 .907-.744 1.642-1.663 1.642a1.653 1.653 0 0 1-1.663-1.642c0-.907.745-1.642 1.663-1.642.919 0 1.663.735 1.663 1.642z" fill="url(#a)"/><path fill-rule="evenodd" clip-rule="evenodd" d="M24.955 9.173A10.734 10.734 0 0 1 27.01 15.5c0 6.006-4.93 10.874-11.01 10.874S4.99 21.506 4.99 15.5c0-5.691 4.427-10.361 10.065-10.834v-.003l.014.001c.307-.025.617-.038.93-.038 3.676 0 6.93 1.778 8.93 4.511l.005-.003.02.039zm-9.252 16.27c-.796-.611-1.321-1.506-1.528-2.442-.263-1.185-.026-2.498.85-3.446a4.217 4.217 0 0 1-2.847-2.29c-1.265-.558-2.575-.112-3.439.838-.896.987-1.234 2.438-.515 3.706l-.009.005a10.098 10.098 0 0 0 7.488 3.63zm.698-5.795c1.076-.1 2.035-.6 2.722-1.347.32 1.113 1.176 1.976 2.199 2.446.938.431 2.057.551 3.088.23a10.085 10.085 0 0 1-6.667 4.323v-.002c-1.413-.16-2.375-1.241-2.652-2.495-.27-1.218.127-2.496 1.31-3.155zm-8.36-2.163a4.396 4.396 0 0 0-1.11 2.349A9.807 9.807 0 0 1 5.927 15.5c0-1.55.36-3.019 1-4.327 1-.99 2.452-1.065 3.616-.506 1.126.541 1.893 1.628 1.698 2.94a4.106 4.106 0 0 0-.404 2.574c-1.463-.327-2.873.288-3.795 1.304zm17.212 1.952c-.989.92-2.392.996-3.536.47-1.149-.527-1.944-1.616-1.764-2.949a4.11 4.11 0 0 0 .264-1.576c1.543.393 3.044-.238 4.026-1.304a4.583 4.583 0 0 0 1.132-2.221 9.814 9.814 0 0 1 .697 3.643 9.81 9.81 0 0 1-.82 3.937zM7.933 9.543a10.091 10.091 0 0 1 7.117-3.947c1.382.2 2.283 1.27 2.515 2.505.233 1.239-.225 2.56-1.5 3.233H16a4.233 4.233 0 0 0-2.871 1.113c-.261-1.18-1.125-2.107-2.176-2.612-.912-.438-2.003-.579-3.02-.292zm12.125 4.813a4.2 4.2 0 0 0-2.702-2.803c1.036-.96 1.368-2.356 1.13-3.621a4.156 4.156 0 0 0-1.271-2.308 10.09 10.09 0 0 1 6.941 4.038c.685 1.313.317 2.788-.607 3.793-.883.96-2.205 1.42-3.491.9zm-1.002 2.326c.145-.366.225-.765.225-1.182 0-1.79-1.469-3.24-3.281-3.24s-3.281 1.45-3.281 3.24c0 1.79 1.469 3.24 3.281 3.24a3.282 3.282 0 0 0 3.042-2.022l.006-.037.008.001z" fill="url(#b)"/><path fill-rule="evenodd" clip-rule="evenodd" d="M19.424 27.537C18.335 27.839 17.188 28 16 28c-1.187 0-2.335-.161-3.425-.463H2.406A1.398 1.398 0 0 1 1 26.148V4.852c0-.767.63-1.389 1.406-1.389h10.17A12.815 12.815 0 0 1 16 3c1.187 0 2.335.161 3.424.463h10.17c.776 0 1.406.622 1.406 1.389v21.296c0 .767-.63 1.389-1.406 1.389h-10.17zm-.143-.923c-1.04.3-2.142.46-3.281.46-1.139 0-2.24-.16-3.281-.46v-.003h-.011C7.838 25.206 4.28 20.763 4.28 15.5c0-5.263 3.557-9.706 8.427-11.111h.01v-.003A11.86 11.86 0 0 1 16 3.926c1.139 0 2.24.16 3.281.46v.003h.011c4.87 1.405 8.427 5.848 8.427 11.111 0 5.263-3.557 9.706-8.427 11.111h-.01v.003zm2.523-.003h7.79a.466.466 0 0 0 .468-.463V4.852a.466.466 0 0 0-.468-.463h-7.79c4.07 2.078 6.852 6.274 6.852 11.111 0 4.837-2.782 9.033-6.852 11.111zM3.344 15.5c0 4.837 2.782 9.033 6.852 11.111h-7.79a.466.466 0 0 1-.469-.463V4.852c0-.256.21-.463.47-.463h7.79C6.125 6.467 3.343 10.663 3.343 15.5z" fill="url(#c)"/><defs><linearGradient id="a" x1="27.37" y1="3" x2="30.688" y2="27.564" gradientUnits="userSpaceOnUse"><stop stop-color="#EFBAD3"/><stop offset="1" stop-color="#9A5FEC"/></linearGradient><linearGradient id="b" x1="27.37" y1="3" x2="30.688" y2="27.564" gradientUnits="userSpaceOnUse"><stop stop-color="#EFBAD3"/><stop offset="1" stop-color="#9A5FEC"/></linearGradient><linearGradient id="c" x1="27.37" y1="3" x2="30.688" y2="27.564" gradientUnits="userSpaceOnUse"><stop stop-color="#EFBAD3"/><stop offset="1" stop-color="#9A5FEC"/></linearGradient></defs></svg>