<svg width="24" height="24" fill="none" xmlns="http://www.w3.org/2000/svg"><path fill-rule="evenodd" clip-rule="evenodd" d="M13.546 11.988a1.546 1.546 0 1 1-3.092 0 1.546 1.546 0 0 1 3.092 0zm-1.03 0a.515.515 0 1 1-1.031 0 .515.515 0 0 1 1.03 0z" fill="#fff"/><path fill-rule="evenodd" clip-rule="evenodd" d="M19.951 11.973a7.913 7.913 0 0 1-7.914 7.911 7.913 7.913 0 1 1 0-15.823 7.913 7.913 0 0 1 7.914 7.912zm-8.675 6.84a3.194 3.194 0 0 1-.672-1.371c-.166-.755-.057-1.592.4-2.26a3.343 3.343 0 0 1-2.047-1.816c-.7-.195-1.402.08-1.895.629-.572.637-.776 1.557-.336 2.354a6.872 6.872 0 0 0 4.55 2.463zm1.047-3.495a3.325 3.325 0 0 0 2.034-.96c.293.642.833 1.138 1.452 1.425.537.25 1.162.357 1.772.269a6.881 6.881 0 0 1-4.441 2.714c-.805-.136-1.362-.78-1.53-1.545-.161-.74.063-1.49.713-1.903zm-6.028-2.011a3.34 3.34 0 0 0-.676 1.155 6.862 6.862 0 0 1-.465-2.49c0-1.074.247-2.09.686-2.996.599-.553 1.447-.595 2.148-.254.692.337 1.142.995 1.034 1.778a3.319 3.319 0 0 0-.345 1.776c-.93-.06-1.796.377-2.382 1.03zm9.035-1.13a3.322 3.322 0 0 1-.153.839c-.125.818.346 1.498 1.067 1.833.72.335 1.586.274 2.182-.31a6.861 6.861 0 0 0 .494-2.566c0-.656-.092-1.29-.263-1.891-.156.39-.383.749-.659 1.052-.654.72-1.633 1.182-2.668 1.043zm-.119-1.076a3.342 3.342 0 0 0-1.857-2.148c.554-.695.72-1.596.568-2.416a3.177 3.177 0 0 0-.577-1.321 6.884 6.884 0 0 1 4.267 2.72c.462.854.236 1.832-.377 2.505-.526.58-1.277.87-2.024.66zm-2.303-4.376c.136.734-.097 1.496-.75 1.945a3.32 3.32 0 0 0-2.239.724c-.257-.718-.821-1.278-1.48-1.599a3.158 3.158 0 0 0-1.619-.31 6.87 6.87 0 0 1 4.518-2.358c.856.13 1.422.802 1.57 1.598zM12 14.303a2.303 2.303 0 1 0 0-4.606 2.303 2.303 0 0 0 0 4.606z" fill="#fff"/><path fill-rule="evenodd" clip-rule="evenodd" d="M12 22c-.728 0-1.438-.078-2.122-.225H1.546A1.546 1.546 0 0 1 0 20.229V3.77c0-.853.692-1.546 1.546-1.546h8.332a10.044 10.044 0 0 1 4.253.002v-.002h8.323c.854 0 1.546.693 1.546 1.546V20.23c0 .853-.692 1.546-1.546 1.546H14.13v-.002c-.687.149-1.4.227-2.131.227zm8.972-10c0 4.954-4.017 8.97-8.972 8.97a9.005 9.005 0 0 1-1.97-.217v-.009h-.038c-3.988-.912-6.964-4.48-6.964-8.744 0-4.264 2.976-7.832 6.964-8.744h.038v-.008A9.004 9.004 0 0 1 12 3.03c4.955 0 8.972 4.015 8.972 8.969zm-4.115 8.744A9.997 9.997 0 0 0 22.003 12a9.997 9.997 0 0 0-5.146-8.744h5.597c.284 0 .515.23.515.515V20.23c0 .284-.23.515-.515.515h-5.597zM1.997 12a9.997 9.997 0 0 0 5.146 8.744H1.546a.515.515 0 0 1-.515-.515V3.77c0-.284.23-.515.515-.515h5.597A9.997 9.997 0 0 0 1.997 12z" fill="#fff"/></svg>