<svg viewBox="0 0 32 32" fill="none" xmlns="http://www.w3.org/2000/svg"><rect y=".5" width="32" height="32" rx="6" fill="#342B55" fill-opacity=".3"/><rect x="8.4" y="9.4" width="15.2" height="15.2" rx="7.6" stroke="#E3E9EC" stroke-width="1.2"/><path d="M15.454 18.749c-.072 0-.137-.052-.137-.124v-.137c0-.2.024-.399.071-.598.048-.2.167-.41.357-.635.079-.1.17-.199.273-.299l.309-.323c.11-.108.217-.216.32-.324.111-.108.21-.212.297-.311.15-.183.273-.382.368-.598.103-.215.155-.427.155-.634 0-.424-.13-.739-.392-.947-.253-.207-.586-.319-.998-.336-.166 0-.332.017-.499.05a1.505 1.505 0 0 0-.45.175 1.12 1.12 0 0 0-.37.31c-.182.223-.447.461-.735.461s-.5-.235-.4-.506c.05-.133.11-.265.174-.365.158-.25.352-.452.582-.61.237-.166.499-.29.784-.373.293-.084.594-.125.902-.125.333 0 .646.046.939.137.293.091.55.228.771.41.222.183.396.407.523.673.135.265.202.597.202.996a2.552 2.552 0 0 1-.226 1.033 3.536 3.536 0 0 1-.582.871c-.087.092-.186.191-.297.3a12.766 12.766 0 0 0-.653.684 2.26 2.26 0 0 0-.225.323 1.083 1.083 0 0 0-.131.361 3.082 3.082 0 0 0-.024.361.1.1 0 0 1-.1.1h-.808zm.374 1.257c.206 0 .376.07.51.212.135.14.202.32.202.535a.744.744 0 0 1-.201.535.676.676 0 0 1-.511.212.676.676 0 0 1-.51-.212.771.771 0 0 1-.19-.535c0-.216.062-.394.19-.535a.676.676 0 0 1 .51-.212z" fill="#E3E9EC"/></svg>