<svg fill="none" xmlns="http://www.w3.org/2000/svg" viewBox="0 0 32 32"><rect width="32" height="32" rx="6" fill="#342B55" fill-opacity=".3"/><mask id="a" fill="#fff"><path d="M23.956 13.033a.753.753 0 0 1-.212.817l-1.436 1.308a6.433 6.433 0 0 1 0 1.687l1.436 1.309a.753.753 0 0 1 .212.817 8.233 8.233 0 0 1-.524 1.139l-.156.269a8.45 8.45 0 0 1-.733 1.036.75.75 0 0 1-.812.226l-1.847-.588a6.377 6.377 0 0 1-1.459.843l-.414 1.897a.75.75 0 0 1-.604.59 8.562 8.562 0 0 1-2.818 0 .75.75 0 0 1-.603-.59l-.415-1.897a6.377 6.377 0 0 1-1.458-.843l-1.844.591a.756.756 0 0 1-.812-.226 8.447 8.447 0 0 1-.733-1.036l-.156-.269a8.238 8.238 0 0 1-.524-1.14.753.753 0 0 1 .213-.816l1.435-1.308a6.438 6.438 0 0 1 0-1.69l-1.435-1.31a.753.753 0 0 1-.213-.816c.146-.396.322-.774.524-1.14l.156-.268c.219-.366.464-.711.733-1.037a.75.75 0 0 1 .812-.225l1.847.588a6.373 6.373 0 0 1 1.459-.844l.414-1.896a.75.75 0 0 1 .604-.591c.457-.08.928-.12 1.409-.12.48 0 .951.04 1.409.116a.75.75 0 0 1 .603.591l.415 1.897a6.377 6.377 0 0 1 1.459.843l1.846-.588a.756.756 0 0 1 .813.226c.268.326.514.671.732 1.036l.156.27c.202.365.378.743.524 1.138l-.003.004zm-7.954 5.625a2.65 2.65 0 0 0 2.652-2.656c0-.705-.28-1.38-.777-1.879a2.65 2.65 0 0 0-4.528 1.879c0 .704.28 1.38.777 1.878a2.65 2.65 0 0 0 1.876.778z"/></mask><path d="M23.956 13.033a.753.753 0 0 1-.212.817l-1.436 1.308a6.433 6.433 0 0 1 0 1.687l1.436 1.309a.753.753 0 0 1 .212.817 8.233 8.233 0 0 1-.524 1.139l-.156.269a8.45 8.45 0 0 1-.733 1.036.75.75 0 0 1-.812.226l-1.847-.588a6.377 6.377 0 0 1-1.459.843l-.414 1.897a.75.75 0 0 1-.604.59 8.562 8.562 0 0 1-2.818 0 .75.75 0 0 1-.603-.59l-.415-1.897a6.377 6.377 0 0 1-1.458-.843l-1.844.591a.756.756 0 0 1-.812-.226 8.447 8.447 0 0 1-.733-1.036l-.156-.269a8.238 8.238 0 0 1-.524-1.14.753.753 0 0 1 .213-.816l1.435-1.308a6.438 6.438 0 0 1 0-1.69l-1.435-1.31a.753.753 0 0 1-.213-.816c.146-.396.322-.774.524-1.14l.156-.268c.219-.366.464-.711.733-1.037a.75.75 0 0 1 .812-.225l1.847.588a6.373 6.373 0 0 1 1.459-.844l.414-1.896a.75.75 0 0 1 .604-.591c.457-.08.928-.12 1.409-.12.48 0 .951.04 1.409.116a.75.75 0 0 1 .603.591l.415 1.897a6.377 6.377 0 0 1 1.459.843l1.846-.588a.756.756 0 0 1 .813.226c.268.326.514.671.732 1.036l.156.27c.202.365.378.743.524 1.138l-.003.004zm-7.954 5.625a2.65 2.65 0 0 0 2.652-2.656c0-.705-.28-1.38-.777-1.879a2.65 2.65 0 0 0-4.528 1.879c0 .704.28 1.38.777 1.878a2.65 2.65 0 0 0 1.876.778z" stroke="#E3E9EC" stroke-width="2" mask="url(#a)"/></svg>