<svg fill="none" xmlns="http://www.w3.org/2000/svg"><path d="M16.003 3.5a13.1 13.1 0 0 0-6.628 1.795 12.754 12.754 0 0 0-3.152 2.608V6.476H5v4.255h.628l.595-.832a11.478 11.478 0 0 1 3.783-3.585 11.853 11.853 0 0 1 5.997-1.624V3.5z" fill="url(#a)"/><path fill-rule="evenodd" clip-rule="evenodd" d="m16.003 11.356-4.89 2.38v5.833l4.89 2.38 4.89-2.38v-5.832l-4.89-2.38zm0 1.33-3.256 1.586 3.256 1.585 3.256-1.585-3.256-1.585zm.611 4.205 3.057-1.488v3.43l-3.057 1.488v-3.43zm-4.279-1.488v3.43l3.057 1.488v-3.43l-3.057-1.488z" fill="url(#b)"/><path fill-rule="evenodd" clip-rule="evenodd" d="M25.783 15.998c0 5.259-4.379 9.522-9.78 9.522-5.402 0-9.78-4.263-9.78-9.522 0-5.26 4.378-9.522 9.78-9.522 5.401 0 9.78 4.263 9.78 9.522zm-1.222 0c0 4.601-3.832 8.332-8.558 8.332s-8.558-3.73-8.558-8.332 3.832-8.332 8.558-8.332 8.558 3.73 8.558 8.332z" fill="url(#c)"/><path d="M15.997 28.5a13.1 13.1 0 0 0 6.628-1.795 12.755 12.755 0 0 0 3.152-2.608v1.427H27V21.27h-.628l-.595.832a11.48 11.48 0 0 1-3.783 3.585 11.853 11.853 0 0 1-5.997 1.624v1.19z" fill="url(#d)"/><defs><linearGradient id="a" x1="24.338" y1="3.5" x2="28.794" y2="27.691" gradientUnits="userSpaceOnUse"><stop stop-color="#EFBAD3"/><stop offset="1" stop-color="#9A5FEC"/></linearGradient><linearGradient id="b" x1="24.338" y1="3.5" x2="28.794" y2="27.691" gradientUnits="userSpaceOnUse"><stop stop-color="#EFBAD3"/><stop offset="1" stop-color="#9A5FEC"/></linearGradient><linearGradient id="c" x1="24.338" y1="3.5" x2="28.794" y2="27.691" gradientUnits="userSpaceOnUse"><stop stop-color="#EFBAD3"/><stop offset="1" stop-color="#9A5FEC"/></linearGradient><linearGradient id="d" x1="24.338" y1="3.5" x2="28.794" y2="27.691" gradientUnits="userSpaceOnUse"><stop stop-color="#EFBAD3"/><stop offset="1" stop-color="#9A5FEC"/></linearGradient></defs></svg>