<svg width="24" height="24" fill="none" xmlns="http://www.w3.org/2000/svg"><path fill-rule="evenodd" clip-rule="evenodd" d="M12 1.5a10.5 10.5 0 0 0-8 3.699V4H3v2.591a1460.268 1460.268 0 0 1 0 .658v.326h.514L4 6.876A9.5 9.5 0 0 1 12 2.5v-1zM19 12a7 7 0 1 1-14 0 7 7 0 0 1 14 0zm1 0a8 8 0 1 1-16 0 8 8 0 0 1 16 0zm-8.005 10.503a10.5 10.5 0 0 0 8-3.698v1.198h1V16.428h-.513l-.487.7a9.5 9.5 0 0 1-8 4.375v1zM12 8.1l-4 2V15l4 2 4-2v-4.9l-4-2zm0 1.118L9.336 10.55 12 11.882l2.664-1.332L12 9.218zm.5 3.532L15 11.5v2.882l-2.5 1.25V12.75zM9 11.5v2.882l2.5 1.25V12.75L9 11.5z" fill="#fff"/></svg>