<svg fill="none" xmlns="http://www.w3.org/2000/svg" viewBox="0 0 32 32"><rect width="32" height="32" rx="6" fill="#342B55" fill-opacity=".3"/><mask id="a" maskUnits="userSpaceOnUse" x="7" y="8" width="18" height="16" fill="#000"><path fill="#fff" d="M7 8h18v16H7z"/><path d="M10 9c-1.103 0-2 .897-2 2v10c0 1.103.897 2 2 2h12c1.103 0 2-.897 2-2v-7c0-1.103-.897-2-2-2H10.5a.501.501 0 0 1-.5-.5c0-.275.225-.5.5-.5H22a.999.999 0 1 0 0-2H10zm11 7.5a1 1 0 1 1 0 2 1 1 0 0 1 0-2z"/></mask><path d="M10 9c-1.103 0-2 .897-2 2v10c0 1.103.897 2 2 2h12c1.103 0 2-.897 2-2v-7c0-1.103-.897-2-2-2H10.5a.501.501 0 0 1-.5-.5c0-.275.225-.5.5-.5H22a.999.999 0 1 0 0-2H10zm11 7.5a1 1 0 1 1 0 2 1 1 0 0 1 0-2z" stroke="#E3E9EC" stroke-width="2" mask="url(#a)"/></svg>