<svg fill="none" xmlns="http://www.w3.org/2000/svg" viewBox="0 0 32 32"><rect width="32" height="32" rx="6" fill="url(#a)"/><mask id="b" maskUnits="userSpaceOnUse" x="7" y="8" width="18" height="16" fill="#000"><path fill="#fff" d="M7 8h18v16H7z"/><path d="M10 9c-1.103 0-2 .897-2 2v10c0 1.103.897 2 2 2h12c1.103 0 2-.897 2-2v-7c0-1.103-.897-2-2-2H10.5a.501.501 0 0 1-.5-.5c0-.275.225-.5.5-.5H22a.999.999 0 1 0 0-2H10zm11 7.5a1 1 0 1 1 0 2 1 1 0 0 1 0-2z"/></mask><path d="M10 9c-1.103 0-2 .897-2 2v10c0 1.103.897 2 2 2h12c1.103 0 2-.897 2-2v-7c0-1.103-.897-2-2-2H10.5a.501.501 0 0 1-.5-.5c0-.275.225-.5.5-.5H22a.999.999 0 1 0 0-2H10zm11 7.5a1 1 0 1 1 0 2 1 1 0 0 1 0-2z" stroke="#E3E9EC" stroke-width="2" mask="url(#b)"/><circle cx="24.5" cy="8.5" r="5" fill="#FB2C45"/><path fill-rule="evenodd" clip-rule="evenodd" d="M24.951 6.45a.45.45 0 0 0-.9 0v1.601H22.45a.45.45 0 0 0 0 .9h1.601v1.601a.45.45 0 0 0 .9 0V8.951h1.601a.45.45 0 0 0 0-.9h-1.601V6.45z" fill="#fff"/><defs><linearGradient id="a" x1="28.128" y1="0" x2="33.185" y2="31.195" gradientUnits="userSpaceOnUse"><stop stop-color="#003EDF"/><stop offset="1" stop-color="#0729A3"/></linearGradient></defs></svg>