<svg width="35" height="35" fill="none" xmlns="http://www.w3.org/2000/svg"><g clip-path="url(#a)"><rect width="35" height="35" rx="17.5" fill="#B0B7D9"/><g filter="url(#b)"><path fill-rule="evenodd" clip-rule="evenodd" d="M26.048 31.506a16.33 16.33 0 0 1-8.548 2.4c-8.336 0-15.22-6.216-16.268-14.266 11.422.281 20.328 5.701 24.816 11.866zm.621.902A18.327 18.327 0 0 1 28.082 35l5.923-5.038c-.873-.827-1.613-1.57-2.27-2.229l-.022-.021A17.42 17.42 0 0 0 35 17.5c0-2.175-.397-4.257-1.122-6.178.578-.99.928-1.875.963-2.436.078-1.23-.729-.97-2.267-.475l-.098.031C29.41 3.382 23.85 0 17.5 0 7.835 0 0 7.835 0 17.5c0 .373.012.744.035 1.112-.332-.003-.674-.005-1.025-.005-.042.29-.09.621-.104 1.046.41-.014.818-.023 1.222-.024C1.178 28.288 8.556 35 17.5 35c3.362 0 6.503-.948 9.17-2.592zM1.132 18.626a16.65 16.65 0 0 1-.038-1.126c0-9.06 7.345-16.406 16.406-16.406 5.855 0 10.993 3.066 13.896 7.68-1.323.381-2.997.735-4.968.616-1.358-.081-2.78-.084-3.976.263a.063.063 0 0 1-.07-.074c.348-.949.08-2.016-.35-2.81a.716.716 0 0 1 .039-.722c.148-.224.308-.505.455-.762.094-.163.182-.316.258-.44.083-.136.13-.325-.01-.404-.336-.191-1.127.064-1.714.383-.39.212-.903.27-1.312.097a5.538 5.538 0 0 0-1.192-.354 5.34 5.34 0 0 0-2.998.309c-.238.099-.504.119-.745.03-.543-.2-1.247-.436-1.8-.428-.279.004-.408.292-.284.535.223.438.469.727.71.937.191.165.277.424.191.657-.633 1.715-.563 3.04.738 4.098a.39.39 0 0 1 .066.538c-2.426 3.18.9 6.54 2.787 8.447.143.144.278.28.401.407.106.141.046.35-.108.438-.08.046-.232.101-.4.161-.272.098-.587.212-.7.327-.858-.21-1.637-.412-2.374-.603-3.785-.98-6.457-1.673-12.908-1.794zm31.993-6.143c-1.44 2.017-3.619 4.103-5.898 4.612-.108.024-.26.031-.418.04-.378.019-.793.04-.726.289.642.813.745 2.666.263 4.519-.039.147-.015.31.099.413.179.165.382.245.557.314.37.145.614.242.248.982-.09.183-.272.303-.525.369 1.548.428 2.67 1.392 4.203 2.907a16.33 16.33 0 0 0 2.978-9.428c0-1.75-.274-3.436-.781-5.017z" fill="url(#c)"/></g></g><defs><linearGradient id="c" x1="19.616" y1="-1.721" x2="17.111" y2="35.011" gradientUnits="userSpaceOnUse"><stop stop-color="#EDF2F5"/><stop offset="1" stop-color="#BFC4DA"/></linearGradient><clipPath id="a"><rect width="35" height="35" rx="17.5" fill="#fff"/></clipPath><filter id="b" x="-3.391" y="-1.148" width="40.688" height="39.594" filterUnits="userSpaceOnUse" color-interpolation-filters="sRGB"><feFlood flood-opacity="0" result="BackgroundImageFix"/><feColorMatrix in="SourceAlpha" values="0 0 0 0 0 0 0 0 0 0 0 0 0 0 0 0 0 0 127 0" result="hardAlpha"/><feOffset dy="1.148"/><feGaussianBlur stdDeviation="1.148"/><feComposite in2="hardAlpha" operator="out"/><feColorMatrix values="0 0 0 0 0.482353 0 0 0 0 0.509804 0 0 0 0 0.631373 0 0 0 1 0"/><feBlend in2="BackgroundImageFix" result="effect1_dropShadow_1_7286"/><feBlend in="SourceGraphic" in2="effect1_dropShadow_1_7286" result="shape"/></filter></defs></svg>