<svg viewBox="0 0 32 32" fill="none" xmlns="http://www.w3.org/2000/svg"><g clip-path="url(#a)"><rect width="32" height="32" rx="16" fill="url(#b)"/><rect width="32" height="32" rx="16" fill="#2B273F" fill-opacity=".58"/><path opacity=".5" d="M13.661 30.397a14.586 14.586 0 0 1-9.733-6.21l10.493-7.116a1.907 1.907 0 0 0 1.273.812l-2.033 12.514z" fill="url(#c)"/><path opacity=".4" d="M19.043 1.735a14.586 14.586 0 0 1 9.416 6.68l-10.83 6.593a1.907 1.907 0 0 0-1.231-.873l2.645-12.4z" fill="url(#d)"/><path d="M20.143 6.711a.654.654 0 0 1 .036-.66c.135-.205.282-.461.417-.696.085-.15.165-.29.235-.403.076-.124.119-.297-.009-.37-.307-.174-1.03.059-1.567.351-.357.194-.825.247-1.2.088a5.065 5.065 0 0 0-1.09-.323 4.883 4.883 0 0 0-2.74.282.933.933 0 0 1-.682.028c-.496-.182-1.14-.399-1.646-.392-.254.004-.372.268-.26.49.204.4.43.664.65.856.175.151.254.388.175.602-.579 1.567-.515 2.779.674 3.746.15.121.177.34.06.492-1.84 2.413.145 5.015 2.052 7.514.15.197.3.393.446.588.097.128.042.32-.1.4-.191.11-.42.27-.587.44C9.78 18.46 4.175 17.43-.843 16.954c-.006.187-.033.373-.063.58a8.339 8.339 0 0 0-.094.957c10.298-1.592 25.687 7.37 25.178 13.744l5.604-4.704c-1.55-1.235-1.427-3.696-5.348-5.047.232-.06.398-.17.48-.337.335-.677.111-.765-.227-.898-.16-.063-.345-.136-.51-.287-.103-.095-.125-.243-.09-.378.441-1.694.596-3.012-.08-4.197-.088-.323.553-.16.886-.235 3.56-.794 6.854-5.798 6.962-7.506.07-1.123-.666-.886-2.073-.434-1.321.425-3.232 1.04-5.619.896a19.052 19.052 0 0 0-3.518.104.058.058 0 0 1-.065-.067c.148-.788-.044-1.708-.437-2.434z" fill="#5B3589"/><path d="M20.143 6.069a.654.654 0 0 1 .036-.66c.135-.205.282-.462.417-.697.085-.149.165-.29.235-.403.076-.124.119-.296-.009-.369-.307-.175-1.03.058-1.567.35-.357.194-.825.248-1.2.089a5.065 5.065 0 0 0-1.09-.323 4.883 4.883 0 0 0-2.74.282.933.933 0 0 1-.682.028c-.496-.183-1.14-.4-1.646-.392-.254.003-.372.267-.26.49.204.4.43.664.65.856a.55.55 0 0 1 .175.601c-.579 1.568-.515 2.78.674 3.746.15.122.177.34.06.492-2.364 3.099.993 6.305 2.918 8.184.097.128.14.336 0 .417-.193.11-.94.17-1.107.341-5.226-1.284-9.4-2.209-15.73-2.027-.006.188-.153-.39-.183-.182A8.335 8.335 0 0 0-1 17.85c12.897-.506 24.43 7.983 26.675 14.03l4.864-4.853c-1.55-1.235-2.894-3.766-6.105-5.184.232-.06.398-.17.48-.338.335-.676.111-.765-.227-.898-.16-.063-.345-.136-.51-.286-.103-.095-.125-.243-.09-.378.441-1.695.387-3.275-.28-4.03-.087-.322.753-.328 1.086-.403 3.56-.794 6.854-5.798 6.962-7.505.07-1.124-.666-.887-2.073-.434-1.321.424-3.232 1.039-5.619.895-1.241-.074-2.585.098-3.651.379-.04.005-.062-.032-.055-.07.352-.872.079-1.98-.314-2.705z" fill="#fff"/><g filter="url(#e)"><path fill-rule="evenodd" clip-rule="evenodd" d="M23.815 28.806A14.93 14.93 0 0 1 16 31C8.379 31 2.085 25.316 1.126 17.956c10.443.258 18.586 5.213 22.689 10.85zm.568.825c.51.784.943 1.577 1.292 2.369l5.415-4.606a98.827 98.827 0 0 1-2.075-2.038l-.02-.02A15.928 15.928 0 0 0 32 16c0-1.988-.363-3.892-1.026-5.649.529-.904.848-1.714.88-2.227.072-1.124-.665-.887-2.072-.434l-.09.028C26.889 3.092 21.806 0 16 0 7.163 0 0 7.163 0 16c0 .341.01.68.032 1.016-.304-.002-.616-.003-.938-.003-.038.265-.08.567-.094.956.375-.014.747-.021 1.117-.023C1.077 25.865 7.822 32 16 32c3.074 0 5.945-.867 8.383-2.37zM1.035 17.03C1.012 16.69 1 16.346 1 16 1 7.716 7.716 1 16 1c5.353 0 10.05 2.804 12.705 7.023-1.21.347-2.74.67-4.542.562-1.241-.074-2.542-.077-3.635.24a.058.058 0 0 1-.065-.067c.32-.867.073-1.844-.32-2.57a.654.654 0 0 1 .036-.66c.135-.204.282-.46.417-.696.085-.149.165-.29.235-.403.076-.123.119-.296-.009-.369-.307-.175-1.03.059-1.567.35-.357.194-.825.248-1.2.089a5.065 5.065 0 0 0-1.09-.323 4.883 4.883 0 0 0-2.74.282.933.933 0 0 1-.682.028c-.496-.183-1.14-.4-1.646-.392-.254.004-.372.267-.26.49.204.4.43.664.65.856.175.15.254.387.175.601-.579 1.568-.515 2.78.674 3.747.15.12.177.339.06.491-2.217 2.907.824 5.98 2.55 7.723l.366.373c.097.128.042.32-.1.4a2.82 2.82 0 0 1-.364.147c-.25.09-.537.194-.641.3-.784-.193-1.497-.378-2.17-.553-3.461-.896-5.904-1.529-11.802-1.64zm29.25-5.617c-1.315 1.844-3.308 3.752-5.392 4.216-.098.022-.237.03-.382.037-.346.018-.725.037-.663.264.586.744.68 2.438.24 4.132-.036.135-.014.283.09.378.164.15.35.223.51.287.337.133.561.22.227.898-.083.167-.25.277-.48.337 1.415.392 2.44 1.273 3.842 2.658A14.931 14.931 0 0 0 31 16c0-1.6-.25-3.141-.714-4.587z" fill="url(#f)"/></g><path fill-rule="evenodd" clip-rule="evenodd" d="m14.278 4.435 1.234 11.821-1.31.137c-1.466-2.058-2.505-4.149-1.005-6.114a.356.356 0 0 0-.06-.492c-1.19-.967-1.254-2.178-.675-3.746a.55.55 0 0 0-.174-.601 2.742 2.742 0 0 1-.65-.856c-.113-.223.005-.486.26-.49.505-.007 1.15.21 1.645.392.22.08.464.062.681-.028a4.5 4.5 0 0 1 .054-.023z" fill="url(#g)"/><path opacity=".8" fill-rule="evenodd" clip-rule="evenodd" d="M12.4 4.118a2.267 2.267 0 0 0-.344-.024c-.255.004-.373.267-.26.49.204.4.429.664.65.856.04.035.076.074.105.117l-.15-1.439zm.206 1.964c-.504 1.386-.498 2.491.354 3.396l-.354-3.396zm.48 4.597.467 4.483c-.89-1.514-1.323-3.03-.468-4.483z" fill="#fff"/><path d="M30.131 11.572a14.808 14.808 0 0 1-1.976 12.887M23.505 28.752A14.796 14.796 0 0 1 1.341 18.015M1.245 17.05c-.301-3.425.68-6.66 2.49-9.34a14.804 14.804 0 0 1 16.957-5.75c3.066 1.024 5.976 3.194 7.799 6.05" stroke="#5B3589" stroke-width=".4"/><path d="M13.595 30.802A14.997 14.997 0 0 1 3.59 24.417l.353-.24a14.569 14.569 0 0 0 9.722 6.203l-.069.422z" fill="url(#h)"/><path d="M3.698 5.77A16 16 0 0 1 20.617.68l-.132.437A15.544 15.544 0 0 0 4.05 6.061l-.351-.291z" fill="#fff"/><path d="M30.062 23.633A16 16 0 0 1 .071 14.494l.454.043a15.544 15.544 0 0 0 29.136 8.878l.401.218z" fill="url(#i)"/></g><defs><radialGradient id="c" cx="0" cy="0" r="1" gradientUnits="userSpaceOnUse" gradientTransform="rotate(-63.754 20.864 -4.864) scale(14.6958)"><stop stop-color="#fff"/><stop offset=".453" stop-color="#674F85"/><stop offset=".494" stop-color="#987ABD"/><stop offset=".545" stop-color="#AC8CD3"/><stop offset=".579" stop-color="#694E8C"/><stop offset="1" stop-color="#35705E"/></radialGradient><radialGradient id="d" cx="0" cy="0" r="1" gradientUnits="userSpaceOnUse" gradientTransform="rotate(123.039 3.66 12.34) scale(14.7287)"><stop stop-color="#fff"/><stop offset=".453" stop-color="#924CCE"/><stop offset=".494" stop-color="#C6AFE3"/><stop offset=".545" stop-color="#C6AFE3"/><stop offset=".579" stop-color="#8249C3"/><stop offset="1" stop-color="#35705E"/></radialGradient><radialGradient id="h" cx="0" cy="0" r="1" gradientUnits="userSpaceOnUse" gradientTransform="rotate(-63.754 20.864 -4.864) scale(15.1094)"><stop stop-color="#fff"/><stop offset=".453" stop-color="#5B3589"/><stop offset=".494" stop-color="#fff"/><stop offset=".545" stop-color="#fff"/><stop offset=".579" stop-color="#5B3589"/><stop offset="1" stop-color="#35705E"/></radialGradient><radialGradient id="i" cx="0" cy="0" r="1" gradientUnits="userSpaceOnUse" gradientTransform="matrix(0 16 -16 0 16 16)"><stop offset=".018" stop-color="#A56919"/><stop offset=".267" stop-color="#FFF7E3"/><stop offset=".297" stop-color="#C0FAE8"/><stop offset=".828" stop-color="#FFE8B9"/><stop offset="1" stop-color="#A65F0C"/></radialGradient><linearGradient id="b" x1="20.5" y1="0" x2="6" y2="33" gradientUnits="userSpaceOnUse"><stop stop-color="#9443FA"/><stop offset="1" stop-color="#5B5266"/></linearGradient><linearGradient id="f" x1="3.613" y1="1.86" x2="23.284" y2="28.491" gradientUnits="userSpaceOnUse"><stop stop-color="#FFF9E8"/><stop offset="1" stop-color="#FFE6B5"/></linearGradient><linearGradient id="g" x1="8.313" y1="20.132" x2="15.674" y2="18.883" gradientUnits="userSpaceOnUse"><stop stop-color="#FFF2D6"/><stop offset=".46" stop-color="#DFA822"/><stop offset="1" stop-color="#FFEFCE"/></linearGradient><clipPath id="a"><rect width="32" height="32" rx="16" fill="#fff"/></clipPath><filter id="e" x="-3.1" y="-1.1" width="37.2" height="36.2" filterUnits="userSpaceOnUse" color-interpolation-filters="sRGB"><feFlood flood-opacity="0" result="BackgroundImageFix"/><feColorMatrix in="SourceAlpha" values="0 0 0 0 0 0 0 0 0 0 0 0 0 0 0 0 0 0 127 0" result="hardAlpha"/><feOffset dy="1"/><feGaussianBlur stdDeviation="1.05"/><feComposite in2="hardAlpha" operator="out"/><feColorMatrix values="0 0 0 0 0.392731 0 0 0 0 0.263827 0 0 0 0 0.424957 0 0 0 1 0"/><feBlend in2="BackgroundImageFix" result="effect1_dropShadow_467_9976"/><feBlend in="SourceGraphic" in2="effect1_dropShadow_467_9976" result="shape"/><feColorMatrix in="SourceAlpha" values="0 0 0 0 0 0 0 0 0 0 0 0 0 0 0 0 0 0 127 0" result="hardAlpha"/><feOffset dy="1"/><feGaussianBlur stdDeviation=".5"/><feComposite in2="hardAlpha" operator="arithmetic" k2="-1" k3="1"/><feColorMatrix values="0 0 0 0 1 0 0 0 0 0.978205 0 0 0 0 0.929167 0 0 0 1 0"/><feBlend in2="shape" result="effect2_innerShadow_467_9976"/></filter></defs></svg>