<svg viewBox="0 0 35 35" fill="none" xmlns="http://www.w3.org/2000/svg"><g filter="url(#a)"><circle cx="17.5" cy="17.5" r="17.5" fill="url(#b)"/></g><circle cx="17.5" cy="17.5" r="16.953" stroke="url(#c)" stroke-width="1.094"/><path opacity=".4" d="M14.937 33.276a15.983 15.983 0 0 1-10.665-6.805L17.5 17.5l-2.563 15.776z" fill="url(#d)"/><path opacity=".4" d="M20.834 1.868a15.983 15.983 0 0 1 10.318 7.32L17.5 17.5l3.334-15.632z" fill="url(#e)"/><circle cx="17.5" cy="17.5" r="16.218" stroke="#064864" stroke-width=".438"/><g filter="url(#f)"><path fill-rule="evenodd" clip-rule="evenodd" d="m25.317 13.973-5.079 11.473c-1.052 2.377-4.424 2.377-5.476 0L9.683 13.973c-1.067-2.41.698-5.121 3.334-5.121h8.966c2.636 0 4.4 2.71 3.334 5.12zm-8.976 10.62V11.195h-3.324c-.941 0-1.944 1.337-1.563 2.198l4.887 11.2zm2.344-13.398v13.398l4.792-10.777c.381-.86-.552-2.62-1.494-2.62h-3.298z" fill="#fff"/></g><g filter="url(#g)"><path fill-rule="evenodd" clip-rule="evenodd" d="m25.317 15.072-5.079 11.474c-1.052 2.377-4.424 2.377-5.476 0L9.683 15.072c-1.067-2.41.698-5.12 3.334-5.12h8.966c2.636 0 4.4 2.71 3.334 5.12zm-8.976 9.252v-12.03h-3.324c-.941 0-1.572.969-1.19 1.83l4.514 10.2zm2.344-12.03v11.972l4.489-10.142a1.302 1.302 0 0 0-1.19-1.83h-3.3z" fill="#0A3548"/></g><g filter="url(#h)"><path fill-rule="evenodd" clip-rule="evenodd" d="m25.317 14.437-5.079 11.474c-1.052 2.376-4.424 2.376-5.476 0L9.683 14.437c-1.067-2.41.698-5.121 3.334-5.121h8.966c2.636 0 4.4 2.71 3.334 5.121zM16.413 24.66V11.426h-3.396c-.941 0-1.87 1.202-1.488 2.063l4.884 11.171zm2.196-13.234V24.66l4.91-11.171c.38-.861-.594-2.063-1.535-2.063h-3.375z" fill="url(#i)"/></g><path d="M14.864 33.725a16.436 16.436 0 0 1-10.968-6.999l.388-.263a15.967 15.967 0 0 0 10.656 6.8l-.076.462z" fill="url(#j)"/><path d="M4.045 6.31A17.5 17.5 0 0 1 22.55.745l-.144.478A17.001 17.001 0 0 0 4.428 6.63l-.383-.32z" fill="#fff"/><path d="M32.88 25.848A17.5 17.5 0 0 1 .078 15.853l.496.047a17.001 17.001 0 0 0 31.868 9.71l.438.238z" fill="url(#k)"/><path fill-rule="evenodd" clip-rule="evenodd" d="M10.648 16.615v-6.427a3.604 3.604 0 0 1 2.369-.872h2.293v2.128h-2.293c-.941 0-1.87 1.178-1.49 2.039l3.783 8.648v4.62a3.044 3.044 0 0 1-.548-.84l-4.114-9.296z" fill="url(#l)"/><path opacity=".8" fill-rule="evenodd" clip-rule="evenodd" d="m13.84 23.828-1.725-3.898v-5.033l1.725 3.915v5.016zm0-14.512h-.823c-.314 0-.616.038-.902.11v2.365c.268-.215.586-.352.902-.352h.823V9.316z" fill="#fff"/><defs><radialGradient id="d" cx="0" cy="0" r="1" gradientUnits="userSpaceOnUse" gradientTransform="rotate(-63.754 22.82 -5.32) scale(16.1036)"><stop stop-color="#fff"/><stop offset=".453" stop-color="#2181AB"/><stop offset=".494" stop-color="#C3E8F8"/><stop offset=".545" stop-color="#C3E8F8"/><stop offset=".579" stop-color="#288AB4"/><stop offset="1" stop-color="#35705E"/></radialGradient><radialGradient id="k" cx="0" cy="0" r="1" gradientUnits="userSpaceOnUse" gradientTransform="rotate(90 0 17.5) scale(17.5)"><stop offset=".018" stop-color="#084966"/><stop offset=".267" stop-color="#B6E2F5"/><stop offset=".297" stop-color="#C0FAE8"/><stop offset=".828" stop-color="#94D1EB"/><stop offset="1" stop-color="#084965"/></radialGradient><radialGradient id="j" cx="0" cy="0" r="1" gradientUnits="userSpaceOnUse" gradientTransform="rotate(-63.754 22.82 -5.32) scale(16.5609)"><stop stop-color="#fff"/><stop offset=".453" stop-color="#084966"/><stop offset=".494" stop-color="#fff"/><stop offset=".545" stop-color="#fff"/><stop offset=".579" stop-color="#064864"/><stop offset="1" stop-color="#35705E"/></radialGradient><radialGradient id="e" cx="0" cy="0" r="1" gradientUnits="userSpaceOnUse" gradientTransform="rotate(123.039 4.003 13.497) scale(16.1398)"><stop stop-color="#fff"/><stop offset=".453" stop-color="#1E82AE"/><stop offset=".494" stop-color="#D9F3FF"/><stop offset=".545" stop-color="#D9F3FF"/><stop offset=".579" stop-color="#2485B0"/><stop offset="1" stop-color="#35705E"/></radialGradient><linearGradient id="b" x1="26.756" y1="0" x2="8.244" y2="35" gradientUnits="userSpaceOnUse"><stop stop-color="#32AADD"/><stop offset="1" stop-color="#2582AA"/></linearGradient><linearGradient id="c" x1="8.153" y1="0" x2="24.502" y2="36.389" gradientUnits="userSpaceOnUse"><stop stop-color="#C6EAF9"/><stop offset="1" stop-color="#89CCE8"/></linearGradient><linearGradient id="i" x1="13.156" y1="9.316" x2="22.424" y2="27.575" gradientUnits="userSpaceOnUse"><stop stop-color="#C6EAF9"/><stop offset="1" stop-color="#89CCE8"/></linearGradient><linearGradient id="l" x1="10.648" y1="11.288" x2="15.31" y2="11.355" gradientUnits="userSpaceOnUse"><stop stop-color="#C4E9F9" stop-opacity="0"/><stop offset=".283" stop-color="#91CEE8"/><stop offset=".716" stop-color="#91CEE8"/><stop offset="1" stop-color="#9BD5ED" stop-opacity="0"/></linearGradient><filter id="f" x="6.305" y="7.977" width="22.391" height="24.502" filterUnits="userSpaceOnUse" color-interpolation-filters="sRGB"><feFlood flood-opacity="0" result="BackgroundImageFix"/><feColorMatrix in="SourceAlpha" values="0 0 0 0 0 0 0 0 0 0 0 0 0 0 0 0 0 0 127 0" result="hardAlpha"/><feOffset dy="2.188"/><feGaussianBlur stdDeviation="1.531"/><feComposite in2="hardAlpha" operator="out"/><feColorMatrix values="0 0 0 0 0.0063425 0 0 0 0 0.399175 0 0 0 0 0.570833 0 0 0 1 0"/><feBlend in2="BackgroundImageFix" result="effect1_dropShadow_236_10839"/><feBlend in="SourceGraphic" in2="effect1_dropShadow_236_10839" result="shape"/></filter><filter id="h" x="6.305" y="8.441" width="22.391" height="24.502" filterUnits="userSpaceOnUse" color-interpolation-filters="sRGB"><feFlood flood-opacity="0" result="BackgroundImageFix"/><feColorMatrix in="SourceAlpha" values="0 0 0 0 0 0 0 0 0 0 0 0 0 0 0 0 0 0 127 0" result="hardAlpha"/><feOffset dy="2.188"/><feGaussianBlur stdDeviation="1.531"/><feComposite in2="hardAlpha" operator="out"/><feColorMatrix values="0 0 0 0 0.0063425 0 0 0 0 0.399175 0 0 0 0 0.570833 0 0 0 1 0"/><feBlend in2="BackgroundImageFix" result="effect1_dropShadow_236_10839"/><feBlend in="SourceGraphic" in2="effect1_dropShadow_236_10839" result="shape"/></filter><filter id="g" x="6.305" y="9.076" width="22.391" height="24.502" filterUnits="userSpaceOnUse" color-interpolation-filters="sRGB"><feFlood flood-opacity="0" result="BackgroundImageFix"/><feColorMatrix in="SourceAlpha" values="0 0 0 0 0 0 0 0 0 0 0 0 0 0 0 0 0 0 127 0" result="hardAlpha"/><feOffset dy="2.188"/><feGaussianBlur stdDeviation="1.531"/><feComposite in2="hardAlpha" operator="out"/><feColorMatrix values="0 0 0 0 0.0063425 0 0 0 0 0.399175 0 0 0 0 0.570833 0 0 0 1 0"/><feBlend in2="BackgroundImageFix" result="effect1_dropShadow_236_10839"/><feBlend in="SourceGraphic" in2="effect1_dropShadow_236_10839" result="shape"/></filter><filter id="a" x="0" y="0" width="35" height="39.375" filterUnits="userSpaceOnUse" color-interpolation-filters="sRGB"><feFlood flood-opacity="0" result="BackgroundImageFix"/><feBlend in="SourceGraphic" in2="BackgroundImageFix" result="shape"/><feColorMatrix in="SourceAlpha" values="0 0 0 0 0 0 0 0 0 0 0 0 0 0 0 0 0 0 127 0" result="hardAlpha"/><feOffset dy="4.375"/><feGaussianBlur stdDeviation="2.188"/><feComposite in2="hardAlpha" operator="arithmetic" k2="-1" k3="1"/><feColorMatrix values="0 0 0 0 0.0100307 0 0 0 0 0.389686 0 0 0 0 0.555555 0 0 0 1 0"/><feBlend in2="shape" result="effect1_innerShadow_236_10839"/></filter></defs></svg>