<svg viewBox="0 0 13 12" fill="none" xmlns="http://www.w3.org/2000/svg"><path d="M3.924.78a.591.591 0 0 0-.85 0L.677 3.234a.624.624 0 0 0 0 .869c.234.24.614.24.849 0L2.9 2.695v8.178c0 .34.268.527.6.527.332 0 .6-.187.6-.527V2.695l1.375 1.408c.235.24.615.24.85 0a.624.624 0 0 0 0-.869L3.924.78h-.001zM9.924 11.22a.591.591 0 0 1-.85 0L6.677 8.766a.624.624 0 0 1 0-.869.591.591 0 0 1 .849 0L8.9 9.305V1.127c0-.34.268-.526.6-.526.332 0 .6.186.6.526v8.178l1.375-1.408a.591.591 0 0 1 .85 0 .624.624 0 0 1 0 .869l-2.4 2.454h-.001z" fill="#E3E9EC"/></svg>